<svg width="350" height="158" viewBox="0 0 521 158" fill="none" xmlns="http://www.w3.org/2000/svg">
<g clip-path="url(#clip0_1_1462)">
<path fill-rule="evenodd" clip-rule="evenodd" d="M10.3696 91.9272C12.8334 98.0776 17.362 99.2918 23.7858 99.1226C43.0772 98.6349 62.4085 98.625 81.7298 99.1127C88.6923 99.2818 90.7471 97.0426 90.1785 90.4244C89.6299 83.8559 90.0289 77.1978 89.9691 70.5796C89.8992 64.1306 87.4454 61.1449 80.1239 61.2643C56.8924 61.6525 33.631 61.2942 10.3696 61.2245V91.9371V91.9272Z" fill="#43B649"/>
<path fill-rule="evenodd" clip-rule="evenodd" d="M19.4468 107.045C26.5489 119.147 36.2444 126.113 46.3789 132.393C57.1917 139.101 69.0518 143.46 81.3608 146.654C87.3557 148.217 89.7596 146.356 89.6 140.126C89.3506 131.119 89.5102 122.082 89.5701 113.066C89.6 109.801 89.3905 107.005 85.0116 107.005C63.6853 107.065 42.359 107.045 19.4568 107.045H19.4468Z" fill="#42454F"/>
<path fill-rule="evenodd" clip-rule="evenodd" d="M84.1437 52.377C76.6626 39.6381 66.4683 32.3431 55.8151 25.715C44.4737 18.6688 32.0051 14.0908 19.0478 10.707C18.15 10.4781 17.3421 10.3189 16.5441 10.2392C12.0554 9.75159 10.23 11.9809 10.3896 17.5939C10.6489 27.0685 10.4794 36.5629 10.3896 46.0573C10.3896 49.4809 10.5891 52.4168 15.2174 52.3869C37.6509 52.3571 60.0544 52.377 84.1437 52.377Z" fill="#43B649"/>
<path d="M120.053 117.186C119.265 117.186 118.866 117.574 118.866 118.33C118.866 119.087 119.275 119.505 120.053 119.505C120.831 119.505 121.29 119.107 121.29 118.33C121.29 117.803 121.071 117.186 120.053 117.186Z" fill="#42454F"/>
<path d="M120.941 122.769H119.165V139.33H120.941V122.769Z" fill="#42454F"/>
<path d="M132.981 122.451C130.726 122.451 128.941 123.207 127.654 124.69V122.729H125.879V139.33H127.654V129.168C127.654 127.626 128.133 126.362 129.09 125.426C130.058 124.491 131.345 124.033 132.971 124.033C134.597 124.033 135.923 124.57 136.911 125.635C137.848 126.641 138.327 127.954 138.327 129.537V139.33H140.063V129.975C140.063 127.775 139.464 125.974 138.287 124.64C137.03 123.197 135.255 122.451 132.971 122.451H132.981Z" fill="#42454F"/>
<path d="M147.305 118.151H145.529V136.006C145.529 138.205 146.666 139.32 148.911 139.32H149.818V137.688H148.651C147.753 137.688 147.305 137.09 147.305 135.856V124.381H151.933V122.759H147.305V118.151Z" fill="#42454F"/>
<path d="M165.499 122.451C162.915 122.451 160.781 123.277 159.165 124.879C157.539 126.501 156.721 128.571 156.721 131.049C156.721 133.527 157.559 135.647 159.215 137.23C160.86 138.812 163.035 139.618 165.678 139.618C168.94 139.618 171.434 138.782 173.11 137.14L173.219 137.041L171.903 135.846L171.813 135.946C171.174 136.583 170.227 137.09 168.97 137.469C167.853 137.817 166.736 137.986 165.678 137.986C163.643 137.986 161.958 137.399 160.681 136.215C159.434 135.04 158.746 133.547 158.606 131.637H174.097L174.127 131.527C174.187 131.308 174.217 131.039 174.217 130.751C174.217 128.352 173.389 126.342 171.753 124.789C170.117 123.237 168.012 122.441 165.509 122.441L165.499 122.451ZM165.479 124.023C167.394 124.023 168.99 124.59 170.207 125.725C171.394 126.83 172.112 128.273 172.322 130.024H158.586C158.796 128.273 159.514 126.83 160.721 125.725C161.948 124.6 163.554 124.023 165.469 124.023H165.479Z" fill="#42454F"/>
<path d="M181.448 114.937H179.673V139.33H181.448V114.937Z" fill="#42454F"/>
<path d="M188.7 114.937H186.925V139.33H188.7V114.937Z" fill="#42454F"/>
<path d="M195.344 117.186C194.566 117.186 194.167 117.574 194.167 118.33C194.167 119.087 194.566 119.505 195.344 119.505C196.122 119.505 196.59 119.107 196.59 118.33C196.59 117.803 196.381 117.186 195.344 117.186Z" fill="#42454F"/>
<path d="M196.251 122.769H194.476V139.33H196.251V122.769Z" fill="#42454F"/>
<path d="M217.727 125.765C216.001 123.575 213.667 122.461 210.755 122.461C208.071 122.461 205.927 123.267 204.371 124.859C202.835 126.412 202.047 128.482 202.047 131.059C202.047 133.637 202.855 135.657 204.451 137.24C206.047 138.822 208.201 139.628 210.825 139.628C212.012 139.628 213.149 139.429 214.206 139.061C214.665 138.892 215.253 138.563 216.011 138.046C216.74 137.528 217.298 137.061 217.727 136.623V138.514C217.727 140.554 217.159 142.206 216.031 143.41C214.854 144.664 213.189 145.301 211.074 145.301C208.74 145.301 206.575 144.764 204.65 143.709L204.5 143.629L203.882 145.331L204.012 145.381C205.687 146.047 206.785 146.445 207.383 146.595C208.411 146.873 209.628 147.013 211.004 147.013C213.647 147.013 215.772 146.217 217.278 144.644C218.745 143.131 219.493 141.071 219.493 138.524V122.769H217.717V125.765H217.727ZM216.061 126.402C217.169 127.805 217.727 129.656 217.727 131.885V134.314C216.799 135.627 215.573 136.652 214.116 137.339C213.139 137.787 212.041 138.006 210.844 138.006C208.67 138.006 206.944 137.349 205.717 136.055C204.53 134.811 203.912 133.119 203.912 131.029C203.912 128.94 204.52 127.287 205.747 126.014C206.994 124.7 208.71 124.033 210.844 124.033C212.979 124.033 214.834 124.829 216.071 126.402H216.061Z" fill="#42454F"/>
<path d="M233.737 122.451C231.153 122.451 229.029 123.277 227.403 124.879C225.787 126.501 224.959 128.571 224.959 131.049C224.959 133.527 225.797 135.647 227.443 137.23C229.088 138.812 231.273 139.618 233.906 139.618C237.168 139.618 239.672 138.782 241.338 137.14L241.447 137.041L240.151 135.846L240.051 135.946C239.392 136.603 238.465 137.09 237.198 137.469C236.081 137.817 234.974 137.986 233.906 137.986C231.861 137.986 230.186 137.399 228.919 136.215C227.672 135.05 226.974 133.518 226.844 131.637H242.335L242.355 131.527C242.415 131.308 242.445 131.039 242.445 130.751C242.445 128.352 241.617 126.342 239.981 124.799C238.345 123.237 236.25 122.441 233.737 122.441V122.451ZM233.727 124.023C235.642 124.023 237.238 124.59 238.465 125.725C239.662 126.83 240.36 128.273 240.57 130.024H226.854C227.054 128.273 227.772 126.83 228.969 125.725C230.206 124.6 231.802 124.023 233.727 124.023Z" fill="#42454F"/>
<path d="M255.013 122.451C252.749 122.451 250.963 123.207 249.687 124.69V122.729H247.911V139.33H249.687V129.168C249.687 127.626 250.175 126.362 251.133 125.426C252.091 124.491 253.397 124.033 255.023 124.033C256.649 124.033 257.966 124.551 258.953 125.635C259.901 126.641 260.37 127.954 260.37 129.537V139.33H262.105V129.975C262.105 127.765 261.527 125.974 260.35 124.64C259.093 123.197 257.297 122.451 255.033 122.451H255.013Z" fill="#42454F"/>
<path d="M269.337 118.151H267.562V136.006C267.562 138.205 268.699 139.32 270.933 139.32H271.841V137.688H270.674C269.776 137.688 269.337 137.09 269.337 135.856V124.381H273.955V122.759H269.337V118.151Z" fill="#42454F"/>
<path d="M296.299 124.033C298.204 124.033 299.85 124.71 301.167 126.043L301.267 126.143L302.573 125.068L302.454 124.949C300.768 123.297 298.693 122.461 296.289 122.461C293.696 122.461 291.571 123.287 289.955 124.889C288.329 126.501 287.511 128.581 287.511 131.059C287.511 133.537 288.329 135.598 289.955 137.21C291.581 138.812 293.706 139.638 296.289 139.638C298.653 139.638 300.728 138.792 302.424 137.12L302.533 137.001L301.277 135.866L301.177 135.966C299.85 137.319 298.204 137.996 296.309 137.996C294.175 137.996 292.459 137.339 291.202 136.006C289.985 134.722 289.377 133.04 289.377 131.02C289.377 128.999 289.985 127.297 291.202 126.014C292.469 124.69 294.184 124.023 296.309 124.023L296.299 124.033Z" fill="#42454F"/>
<path d="M313.566 122.699C311.102 122.699 309.137 123.675 307.74 125.615V122.779H306.005V139.34H307.74V131.915C307.74 129.517 308.279 127.656 309.316 126.362C310.414 125.038 311.75 124.361 313.306 124.361H313.346C315.102 124.551 315.301 124.58 315.331 124.58L315.601 124.65V122.978L315.471 122.958C314.354 122.809 313.775 122.729 313.556 122.709L313.566 122.699Z" fill="#42454F"/>
<path d="M327.899 122.451C325.316 122.451 323.191 123.277 321.565 124.879C319.94 126.491 319.112 128.571 319.112 131.049C319.112 133.527 319.94 135.588 321.565 137.2C323.191 138.802 325.326 139.628 327.899 139.628C330.473 139.628 332.628 138.822 334.234 137.2C335.839 135.598 336.647 133.527 336.647 131.049C336.647 128.571 335.849 126.491 334.263 124.899C332.648 123.277 330.503 122.451 327.909 122.451H327.899ZM327.899 137.996C325.775 137.996 324.069 137.339 322.822 136.006C321.605 134.722 320.997 133.06 320.997 131.02C320.997 128.979 321.605 127.297 322.822 126.014C324.089 124.69 325.795 124.023 327.899 124.023C330.004 124.023 331.71 124.69 332.957 126.014C334.164 127.297 334.772 128.979 334.772 131.02C334.772 133.06 334.174 134.682 332.937 135.996C331.68 137.329 329.984 137.996 327.899 137.996Z" fill="#42454F"/>
<path d="M348.927 122.451C346.024 122.451 343.67 123.565 341.944 125.755V122.232H340.159V146.963L340.238 147.063H341.944V136.563C342.862 137.658 344.099 138.494 345.635 139.061C346.662 139.439 347.71 139.628 348.847 139.628C351.48 139.628 353.625 138.822 355.221 137.24C356.807 135.657 357.625 133.577 357.625 131.059C357.625 128.541 356.837 126.412 355.31 124.869C353.754 123.267 351.61 122.461 348.937 122.461L348.927 122.451ZM348.827 124.023C350.971 124.023 352.687 124.69 353.934 126.004C355.161 127.297 355.759 128.949 355.759 131.02C355.759 133.09 355.151 134.772 353.944 136.035C352.707 137.339 350.991 137.996 348.837 137.996C347.75 137.996 346.712 137.777 345.745 137.329C344.069 136.533 342.822 135.458 341.954 134.035V131.875C341.954 129.626 342.513 127.775 343.61 126.372C344.827 124.809 346.582 124.023 348.837 124.023H348.827Z" fill="#42454F"/>
<path d="M380.527 130.422L377.086 129.497C374.861 128.9 373.734 127.994 373.734 126.79C373.734 125.178 374.781 124.391 376.936 124.391H379.958C381.474 124.391 382.592 124.75 383.34 125.476L383.42 125.556L384.986 124.65L384.876 124.521C383.898 123.356 382.292 122.769 380.098 122.769H377.475C373.814 122.769 371.958 124.093 371.958 126.71C371.958 128.8 373.415 130.243 376.317 131.02L379.619 131.885C382.133 132.552 383.4 133.637 383.4 135.12C383.4 136.861 382.113 137.707 379.45 137.707H376.647C375.27 137.707 374.173 137.319 373.405 136.543L373.325 136.463L371.749 137.359L371.859 137.498C372.876 138.713 374.482 139.33 376.647 139.33H378.382C382.891 139.33 385.175 137.877 385.175 135.01C385.175 132.791 383.599 131.248 380.507 130.422H380.527Z" fill="#42454F"/>
<path d="M398.571 122.451C395.988 122.451 393.853 123.277 392.237 124.879C390.611 126.491 389.784 128.571 389.784 131.049C389.784 133.527 390.611 135.588 392.237 137.2C393.873 138.802 395.988 139.628 398.571 139.628C401.155 139.628 403.3 138.822 404.895 137.21C406.491 135.608 407.319 133.527 407.319 131.049C407.319 128.571 406.511 126.501 404.925 124.899C403.3 123.277 401.165 122.451 398.571 122.451ZM398.571 137.996C396.437 137.996 394.721 137.339 393.474 136.006C392.267 134.722 391.649 133.06 391.649 131.02C391.649 128.979 392.267 127.297 393.474 126.014C394.741 124.69 396.447 124.023 398.571 124.023C400.696 124.023 402.362 124.69 403.619 126.014C404.836 127.307 405.454 128.989 405.454 131.02C405.454 133.05 404.826 134.682 403.599 135.996C402.342 137.329 400.656 137.996 398.571 137.996Z" fill="#42454F"/>
<path d="M413.683 114.937H411.898V139.33H413.683V114.937Z" fill="#42454F"/>
<path d="M430.671 132.562C430.671 134.154 430.202 135.468 429.284 136.473C428.316 137.538 427 138.076 425.364 138.076C423.728 138.076 422.371 137.538 421.414 136.493C420.496 135.498 420.027 134.174 420.027 132.562V122.769H418.282V132.114C418.282 134.344 418.87 136.135 420.027 137.459C421.284 138.902 423.08 139.628 425.364 139.628C427.648 139.628 429.414 138.892 430.68 137.439C431.848 136.105 432.446 134.314 432.446 132.114V122.769H430.671V132.562Z" fill="#42454F"/>
<path d="M438.82 118.151H437.035V136.006C437.035 138.205 438.172 139.32 440.426 139.32H441.324V137.688H440.147C439.249 137.688 438.82 137.09 438.82 135.856V124.381H443.438V122.759H438.82V118.151Z" fill="#42454F"/>
<path d="M448.565 117.186C447.787 117.186 447.369 117.574 447.369 118.33C447.369 119.087 447.787 119.505 448.565 119.505C449.344 119.505 449.802 119.107 449.802 118.33C449.802 117.803 449.583 117.186 448.565 117.186Z" fill="#42454F"/>
<path d="M449.463 122.769H447.688V139.33H449.463V122.769Z" fill="#42454F"/>
<path d="M463.169 122.451C460.585 122.451 458.461 123.277 456.835 124.879C455.219 126.501 454.391 128.571 454.391 131.049C454.391 133.527 455.219 135.588 456.835 137.2C458.471 138.802 460.595 139.628 463.169 139.628C465.742 139.628 467.907 138.822 469.503 137.21C471.099 135.608 471.917 133.527 471.917 131.049C471.917 128.571 471.109 126.501 469.523 124.899C467.907 123.277 465.782 122.451 463.169 122.451ZM463.169 137.996C461.014 137.996 459.348 137.359 458.081 136.006C456.875 134.722 456.256 133.06 456.256 131.02C456.256 128.979 456.875 127.297 458.081 126.014C459.348 124.69 461.054 124.023 463.169 124.023C465.283 124.023 466.969 124.69 468.216 126.014C469.433 127.307 470.051 128.979 470.051 131.02C470.051 133.06 469.433 134.692 468.206 135.996C466.949 137.329 465.253 137.996 463.169 137.996Z" fill="#42454F"/>
<path d="M483.627 122.451C481.363 122.451 479.577 123.207 478.3 124.69V122.729H476.515V139.33H478.3V129.168C478.3 127.626 478.779 126.362 479.737 125.426C480.694 124.491 481.991 124.033 483.627 124.033C485.263 124.033 486.57 124.57 487.557 125.635C488.485 126.641 488.964 127.954 488.964 129.537V139.33H490.709V129.975C490.709 127.775 490.111 125.984 488.944 124.64C487.677 123.197 485.891 122.451 483.627 122.451Z" fill="#42454F"/>
<path d="M503.986 130.422L500.545 129.497C498.32 128.9 497.203 127.994 497.203 126.79C497.203 125.178 498.25 124.391 500.405 124.391H503.437C504.943 124.391 506.081 124.76 506.819 125.476L506.899 125.556L508.475 124.65L508.365 124.521C507.377 123.356 505.771 122.769 503.587 122.769H500.953C497.283 122.769 495.427 124.093 495.427 126.71C495.427 128.8 496.894 130.243 499.786 131.02L503.098 131.885C505.612 132.552 506.889 133.637 506.889 135.12C506.889 136.861 505.592 137.707 502.938 137.707H500.126C498.759 137.707 497.662 137.319 496.884 136.543L496.804 136.463L495.228 137.359L495.338 137.498C496.345 138.713 497.961 139.33 500.126 139.33H501.871C506.38 139.33 508.664 137.877 508.664 135.01C508.664 132.791 507.098 131.248 503.996 130.422H503.986Z" fill="#42454F"/>
<path d="M128.771 25.6453H118.477V102.148H128.771V25.6453Z" fill="#42454F"/>
<path d="M163.205 47.6397C158.636 47.6397 154.686 48.7245 151.384 50.8841V48.4259H141.33V102.148H151.384V69.8332C151.384 65.9319 152.432 62.9363 154.576 60.6871C156.681 58.4876 159.504 57.4028 163.205 57.4028C166.905 57.4028 169.698 58.6369 171.863 61.1747C174.017 63.6827 175.065 66.8774 175.065 70.9279V102.148H185.02V72.2118C185.02 65.1755 183.214 59.3833 179.663 55.0143C175.733 50.1278 170.187 47.6397 163.195 47.6397H163.205Z" fill="#42454F"/>
<path d="M207.583 35.0402H197.528V89.8869C197.528 97.6795 201.827 102.148 209.308 102.148H214.386V92.2357H208.6C208.301 92.2357 207.593 92.2357 207.593 89.4391V58.4379H220.131V48.5354H207.593V35.0402H207.583Z" fill="#42454F"/>
<path d="M253.617 47.6397C245.856 47.6397 239.423 50.3069 234.515 55.5915C229.667 60.8065 227.203 67.4447 227.203 75.3666C227.203 83.2886 229.717 90.1059 234.675 95.2512C239.662 100.416 246.205 103.034 254.096 103.034C263.701 103.034 271.113 100.337 276.15 95.0123L278.185 92.8626L270.883 85.707L268.769 87.996C267.352 89.5386 265.148 90.8025 262.185 91.758C259.462 92.6636 256.729 93.1214 254.096 93.1214C249.208 93.1214 245.398 91.6783 242.415 88.6827C240.041 86.3041 238.545 83.3384 237.867 79.6959H278.903L279.502 77.4666C279.731 76.6007 279.851 75.6453 279.851 74.5207C279.851 66.8376 277.367 60.3686 272.449 55.3029C267.502 50.2074 261.178 47.6298 253.627 47.6298L253.617 47.6397ZM238.016 69.7934C238.794 66.5191 240.28 63.8419 242.525 61.6226C245.407 58.7763 249.018 57.3929 253.557 57.3929C258.096 57.3929 261.686 58.7763 264.539 61.6027C266.754 63.8121 268.23 66.5091 269.018 69.7834H238.016V69.7934Z" fill="#42454F"/>
<path d="M302.394 25.6453H292.349V102.148H302.394V25.6453Z" fill="#42454F"/>
<path d="M325.835 48.5255H315.77V102.148H325.835V48.5255Z" fill="#42454F"/>
<path d="M320.758 32.2337C317.217 32.2337 314.922 34.5525 314.922 38.1453C314.922 41.7381 317.217 44.1564 320.758 44.1564C324.299 44.1564 326.743 41.7978 326.743 38.1453C326.743 34.4928 324.388 32.2337 320.758 32.2337Z" fill="#42454F"/>
<path d="M376.766 34.5127C384.278 34.5127 390.442 37.2197 395.609 42.793L397.524 44.863L405.514 38.4538L403.28 36.0852C395.988 28.3722 387.061 24.461 376.766 24.461C365.704 24.461 356.567 28.2329 349.625 35.6771C342.742 43.0716 339.251 52.5462 339.251 63.8419C339.251 75.1377 342.692 84.7416 349.485 92.0764C356.478 99.5705 365.654 103.372 376.796 103.372C382.881 103.372 388.537 101.959 393.654 99.1823V103.123H403.948V71.4654C403.948 67.5939 402.452 64.449 399.589 62.369C397.474 60.8463 395.05 60.08 392.367 60.08H363.899V70.1417H392.547C393.654 70.3507 393.654 70.699 393.654 71.4156V86.4634C388.766 90.9319 383.24 93.1115 376.796 93.1115C368.547 93.1115 362.123 90.4044 357.106 84.8113C352.178 79.3376 349.784 72.4407 349.784 63.7325C349.784 55.0243 352.198 48.2169 357.146 42.7631C362.173 37.1998 368.597 34.5028 376.776 34.5028L376.766 34.5127Z" fill="#42454F"/>
<path d="M440.087 48.3563L439.718 48.3364C434.581 48.3364 430.192 49.7894 426.561 52.6855V48.5354H416.606V102.158H426.561V77.8646C426.561 71.4056 427.818 66.4594 430.302 63.1751C432.725 59.9805 435.538 58.3981 438.98 58.3583C443.109 58.8459 443.847 58.9454 443.987 58.9653L444.067 58.5374L444.027 58.9952L447.847 59.672V49.5008L445.274 49.1226C442.361 48.6946 440.626 48.4458 440.077 48.3762L440.087 48.3563Z" fill="#42454F"/>
<path d="M502.32 55.6513C497.402 50.3368 490.959 47.6497 483.168 47.6497C475.378 47.6497 468.974 50.3169 464.066 55.6015C459.209 60.8165 456.745 67.4546 456.745 75.3766C456.745 83.2985 459.209 89.9267 464.066 95.1218C468.974 100.377 475.408 103.044 483.168 103.044C490.929 103.044 497.383 100.387 502.25 95.1417C507.058 89.9665 509.482 83.3085 509.482 75.3766C509.482 67.4446 507.078 60.8065 502.32 55.6612V55.6513ZM494.819 88.1552C491.886 91.4992 488.086 93.1214 483.158 93.1214C478.231 93.1214 474.271 91.5091 471.338 88.195C468.435 84.8909 467.029 80.6612 467.029 75.2671C467.029 69.873 468.445 65.6333 471.328 62.3491C474.281 59.0251 478.161 57.4028 483.158 57.4028C488.156 57.4028 491.966 59.0151 494.859 62.3192C497.772 65.6532 499.178 69.8829 499.178 75.2571C499.178 80.6314 497.752 84.7814 494.819 88.1453V88.1552Z" fill="#42454F"/>
</g>
<defs>
<clipPath id="clip0_1_1462">
<rect width="500.37" height="137.67" fill="white" transform="translate(10 10)"/>
</clipPath>
</defs>
</svg>
