<svg width="36" height="36" viewBox="0 0 36 36" fill="none" xmlns="http://www.w3.org/2000/svg">
<path d="M29.1667 20.6666C28.7247 20.6666 28.3008 20.8422 27.9882 21.1548C27.6756 21.4673 27.5 21.8913 27.5 22.3333V22.9666L25.0334 20.4999C24.1624 19.6359 22.9853 19.151 21.7584 19.151C20.5315 19.151 19.3543 19.6359 18.4834 20.4999L17.3167 21.6666L13.1834 17.5333C12.3002 16.6926 11.1277 16.2238 9.90837 16.2238C8.6891 16.2238 7.51651 16.6926 6.63337 17.5333L4.16671 20V10.6666C4.16671 10.2246 4.3423 9.80067 4.65486 9.4881C4.96742 9.17554 5.39135 8.99995 5.83337 8.99995H17.5C17.9421 8.99995 18.366 8.82435 18.6786 8.51179C18.9911 8.19923 19.1667 7.77531 19.1667 7.33328C19.1667 6.89126 18.9911 6.46733 18.6786 6.15477C18.366 5.84221 17.9421 5.66662 17.5 5.66662H5.83337C4.50729 5.66662 3.23552 6.1934 2.29784 7.13108C1.36016 8.06876 0.833374 9.34053 0.833374 10.6666V30.6666C0.833374 31.9927 1.36016 33.2645 2.29784 34.2022C3.23552 35.1398 4.50729 35.6666 5.83337 35.6666H25.8334C27.1595 35.6666 28.4312 35.1398 29.3689 34.2022C30.3066 33.2645 30.8334 31.9927 30.8334 30.6666V22.3333C30.8334 21.8913 30.6578 21.4673 30.3452 21.1548C30.0327 20.8422 29.6087 20.6666 29.1667 20.6666ZM5.83337 32.3333C5.39135 32.3333 4.96742 32.1577 4.65486 31.8451C4.3423 31.5326 4.16671 31.1086 4.16671 30.6666V24.7166L9.00004 19.8833C9.24489 19.65 9.57015 19.5198 9.90837 19.5198C10.2466 19.5198 10.5719 19.65 10.8167 19.8833L16.1 25.1666L23.2667 32.3333H5.83337ZM27.5 30.6666C27.4976 30.9857 27.3924 31.2954 27.2 31.55L19.6834 24L20.85 22.8333C20.9695 22.7113 21.1122 22.6144 21.2696 22.5483C21.427 22.4822 21.596 22.4481 21.7667 22.4481C21.9374 22.4481 22.1065 22.4822 22.2639 22.5483C22.4213 22.6144 22.5639 22.7113 22.6834 22.8333L27.5 27.6833V30.6666ZM35.35 6.14995L30.35 1.14995C30.1915 0.998215 30.0046 0.879273 29.8 0.799949C29.3943 0.633253 28.9391 0.633253 28.5334 0.799949C28.3288 0.879273 28.1419 0.998215 27.9834 1.14995L22.9834 6.14995C22.828 6.30535 22.7047 6.48983 22.6206 6.69287C22.5365 6.8959 22.4932 7.11352 22.4932 7.33328C22.4932 7.77712 22.6695 8.20278 22.9834 8.51662C23.2972 8.83046 23.7229 9.00677 24.1667 9.00677C24.6105 9.00677 25.0362 8.83046 25.35 8.51662L27.5 6.34995V15.6666C27.5 16.1086 27.6756 16.5326 27.9882 16.8451C28.3008 17.1577 28.7247 17.3333 29.1667 17.3333C29.6087 17.3333 30.0327 17.1577 30.3452 16.8451C30.6578 16.5326 30.8334 16.1086 30.8334 15.6666V6.34995L32.9834 8.51662C33.1383 8.67283 33.3226 8.79682 33.5257 8.88143C33.7288 8.96605 33.9467 9.00961 34.1667 9.00961C34.3867 9.00961 34.6046 8.96605 34.8077 8.88143C35.0108 8.79682 35.1951 8.67283 35.35 8.51662C35.5063 8.36168 35.6302 8.17734 35.7149 7.97424C35.7995 7.77114 35.843 7.5533 35.843 7.33328C35.843 7.11326 35.7995 6.89542 35.7149 6.69232C35.6302 6.48922 35.5063 6.30489 35.35 6.14995Z" fill="#68C286"/>
</svg>
